<svg xmlns="http://www.w3.org/2000/svg" viewBox="0 0 512 406.18"><defs><style>.cls-1{fill:#6496dc;}.cls-2{fill:#393962;}</style></defs><title>Ресурс 6</title><g id="Слой_2" data-name="Слой 2"><g id="Layer_1" data-name="Layer 1"><path class="cls-1" d="M151.29,405.24,131.06,385.4v19.84h-8.83V345.1h8.83v35.77l18.59-18.58H161l-21,20.38,22.73,22.57Z"/><path class="cls-1" d="M212.44,362.29v42.95h-8.82v-7.18a17.18,17.18,0,0,1-15,8.12c-11.48,0-19.84-9.3-19.84-22.42s8.52-22.41,19.76-22.41a17.35,17.35,0,0,1,15.08,8.28v-7.34Zm-8.75,21.47c0-8.2-5.7-14-13.19-14s-12.81,5.78-12.81,14,5.39,14,12.81,14S203.69,392,203.69,383.76Z"/><path class="cls-1" d="M225.72,391.42h9c1.33,4.76,4.84,6.95,12.26,6.95,5.7,0,9.22-1.72,9.22-4.92,0-3.59-4.06-4.14-11.25-5.86-12-3-17.1-5.39-17.1-12.57,0-8.67,7.34-13.67,18.12-13.67,11,0,17.18,5.23,18.74,13h-8.9c-1.25-3.51-4.53-5.23-10-5.23-5.7,0-9.06,1.95-9.06,4.92,0,2.73,2.66,3.44,10.15,5.23,11.64,2.73,18.36,4.77,18.36,13.12,0,9.22-8.28,13.75-18.44,13.75C235.48,406.18,227.36,400.71,225.72,391.42Z"/><path class="cls-1" d="M276.41,391.42h9c1.32,4.76,4.84,6.95,12.26,6.95,5.7,0,9.22-1.72,9.22-4.92,0-3.59-4.07-4.14-11.25-5.86-12-3-17.11-5.39-17.11-12.57,0-8.67,7.35-13.67,18.12-13.67,11,0,17.19,5.23,18.75,13h-8.91c-1.24-3.51-4.53-5.23-10-5.23-5.7,0-9.06,1.95-9.06,4.92,0,2.73,2.65,3.44,10.15,5.23,11.64,2.73,18.36,4.77,18.36,13.12,0,9.22-8.28,13.75-18.44,13.75C286.17,406.18,278.05,400.71,276.41,391.42Z"/><path class="cls-1" d="M339.35,348.31a5.75,5.75,0,1,1-5.77-5.39C336.93,342.92,339.35,345.18,339.35,348.31Zm-10.15,14H338v42.95H329.2Z"/><path class="cls-1" d="M379,361.58v9a25.3,25.3,0,0,0-2.66-.15c-8,0-14.21,4.53-14.21,15.15v19.68h-8.83V362.29h8.83v8.51a14.7,14.7,0,0,1,14.29-9.45A11.53,11.53,0,0,1,379,361.58Z"/><path class="cls-1" d="M24.45,213.88a89.77,89.77,0,0,1,138.86-56.61L180.57,140a114.12,114.12,0,0,0-45.83-20.39A105.51,105.51,0,0,1,335.13,84.44a141.77,141.77,0,0,0-56.94,30.12l17.1,17.1a117.08,117.08,0,0,1,192.57,82.22H512A141.2,141.2,0,0,0,371,79.79c-3.81,0-7.6.17-11.36.47a129.59,129.59,0,0,0-248.86,37.18A113.61,113.61,0,0,0,0,213.88Z"/><path class="cls-2" d="M48,280.39c0-24.28,18-42.75,42.76-42.75,20,0,37.69,12.06,40.82,32.92h-21.9c-2.53-8.94-10.28-13.26-18.92-13.26-13,0-21.3,9.54-21.16,23.09-.14,13.71,8.5,23.09,21,23.09,8.79,0,16.54-4.46,19.07-13.4h21.9c-3.28,21.6-21.3,33.07-41,33.07C66.06,323.15,48,304.68,48,280.39Z"/><path class="cls-2" d="M141.59,214h21.3V321.36h-21.3Z"/><path class="cls-2" d="M259.58,280.39c0,24.73-18.77,42.76-42.76,42.76-23.84,0-42.61-18.18-42.61-42.76s19.07-42.75,42.61-42.75C240.51,237.64,259.58,255.66,259.58,280.39Zm-63.91,0c0,13.56,9.23,22.5,21.15,22.5S238,294,238,280.39c0-13.4-9.24-22.49-21.16-22.49S195.67,267,195.67,280.39Z"/><path class="cls-2" d="M345.83,239.42v81.94h-21.3V310c-6,8.34-14,13.11-25.33,13.11-18,0-29.2-12.37-29.2-32.33v-51.4h21.3V286.2c0,10.73,4,16.69,15.05,16.69,11.77,0,18.18-7,18.18-20.41V239.42Z"/><path class="cls-2" d="M442.66,214V321.36h-21.3v-11c-5.66,7.74-14.3,12.81-25.78,12.81-21.3,0-37.39-17.58-37.39-42.76s16.24-42.75,37.24-42.75a30.77,30.77,0,0,1,25.93,13.26V214Zm-21.3,66.41c0-13.4-9.09-22.49-21-22.49s-20.71,9.09-20.71,22.49c0,13.56,8.94,22.5,20.71,22.5S421.36,294,421.36,280.39Z"/></g></g></svg>